<svg xmlns="http://www.w3.org/2000/svg" xmlns:xlink="http://www.w3.org/1999/xlink" xmlns:lucid="lucid" width="1959" height="1246"><g transform="translate(288 -95)" lucid:page-tab-id="0_0"><path d="M494.27 159.33a6 6 0 0 1 6-6h388a6 6 0 0 1 6 6v163a6 6 0 0 1-6 6h-388a6 6 0 0 1-6-6z" stroke="#4e2410" stroke-opacity=".84" stroke-width="2" fill-opacity="0"/><use xlink:href="#a" transform="matrix(1,0,0,1,499.26666666666665,158.33333333333331) translate(98.59157986111111 88.55902777777777)"/><use xlink:href="#b" transform="matrix(1,0,0,1,499.26666666666665,158.33333333333331) translate(176.31510416666669 88.55902777777777)"/><path d="M564.27 119.33a6 6 0 0 1 6-6h248a6 6 0 0 1 6 6v68a6 6 0 0 1-6 6h-248a6 6 0 0 1-6-6z" stroke="#4e2410" stroke-opacity=".84" stroke-width="2" fill="#cc7f3e"/><use xlink:href="#c" transform="matrix(1,0,0,1,569.2666666666667,118.33333333333331) translate(3.7380642361111143 43.40277777777778)"/><use xlink:href="#d" transform="matrix(1,0,0,1,569.2666666666667,118.33333333333331) translate(133.59917534722223 43.40277777777778)"/><path d="M500 506a6 6 0 0 1 6-6h388a6 6 0 0 1 6 6v163a6 6 0 0 1-6 6H506a6 6 0 0 1-6-6z" stroke="#4e2410" stroke-opacity=".84" stroke-width="2" fill-opacity="0"/><use xlink:href="#e" transform="matrix(1,0,0,1,505,505) translate(107.02256944444446 88.55902777777777)"/><use xlink:href="#f" transform="matrix(1,0,0,1,505,505) translate(173.16840277777777 88.55902777777777)"/><path d="M570 466a6 6 0 0 1 6-6h248a6 6 0 0 1 6 6v68a6 6 0 0 1-6 6H576a6 6 0 0 1-6-6z" stroke="#4e2410" stroke-opacity=".84" stroke-width="2" fill="#cc7f3e"/><use xlink:href="#g" transform="matrix(1,0,0,1,575,465) translate(68.66861979166667 43.40277777777778)"/><path d="M20 706a6 6 0 0 1 6-6h388a6 6 0 0 1 6 6v163a6 6 0 0 1-6 6H26a6 6 0 0 1-6-6z" stroke="#4e2410" stroke-opacity=".84" stroke-width="2" fill-opacity="0"/><use xlink:href="#h" transform="matrix(1,0,0,1,25,705) translate(144.38693576388889 88.55902777777777)"/><path d="M90 666a6 6 0 0 1 6-6h248a6 6 0 0 1 6 6v68a6 6 0 0 1-6 6H96a6 6 0 0 1-6-6z" stroke="#4e2410" stroke-opacity=".84" stroke-width="2" fill="#cc7f3e"/><use xlink:href="#i" transform="matrix(1,0,0,1,95,665) translate(2.354600694444443 30.27777777777778)"/><use xlink:href="#j" transform="matrix(1,0,0,1,95,665) translate(134.9826388888889 30.27777777777778)"/><use xlink:href="#k" transform="matrix(1,0,0,1,95,665) translate(76.58962673611111 57.165798611111114)"/><use xlink:href="#l" transform="matrix(1,0,0,1,95,665) translate(112.01714409722223 57.165798611111114)"/><path d="M990 706a6 6 0 0 1 6-6h388a6 6 0 0 1 6 6v163a6 6 0 0 1-6 6H996a6 6 0 0 1-6-6z" stroke="#4e2410" stroke-opacity=".84" stroke-width="2" fill-opacity="0"/><use xlink:href="#m" transform="matrix(1,0,0,1,995,705) translate(135.39713541666669 88.55902777777777)"/><path d="M1060 666a6 6 0 0 1 6-6h248a6 6 0 0 1 6 6v68a6 6 0 0 1-6 6h-248a6 6 0 0 1-6-6z" stroke="#4e2410" stroke-opacity=".84" stroke-width="2" fill="#cc7f3e"/><use xlink:href="#i" transform="matrix(1,0,0,1,1065,665) translate(2.354600694444443 30.27777777777778)"/><use xlink:href="#j" transform="matrix(1,0,0,1,1065,665) translate(134.9826388888889 30.27777777777778)"/><use xlink:href="#k" transform="matrix(1,0,0,1,1065,665) translate(9.044053819444457 57.165798611111114)"/><use xlink:href="#n" transform="matrix(1,0,0,1,1065,665) translate(44.471571180555564 57.165798611111114)"/><path d="M694.27 329.83V458.5" stroke="#4e2410" stroke-opacity=".84" fill="none"/><path d="M694.74 329.85h-.95v-.52h.94zM694.74 459h-.95v-.5h.94z" stroke="#4e2410" stroke-opacity=".84" stroke-width=".05" fill="#4e2410" fill-opacity=".84"/><path d="M-120 1206a6 6 0 0 1 6-6H74a6 6 0 0 1 6 6v88a6 6 0 0 1-6 6h-188a6 6 0 0 1-6-6z" stroke="#4e2410" stroke-opacity=".84" stroke-width="2" fill-opacity="0"/><use xlink:href="#o" transform="matrix(1,0,0,1,-115,1205) translate(57.337239583333336 38.40277777777778)"/><use xlink:href="#p" transform="matrix(1,0,0,1,-115,1205) translate(37.67035590277778 65.29079861111111)"/><path d="M120 1206a6 6 0 0 1 6-6h188a6 6 0 0 1 6 6v88a6 6 0 0 1-6 6H126a6 6 0 0 1-6-6z" stroke="#4e2410" stroke-opacity=".84" stroke-width="2" fill-opacity="0"/><use xlink:href="#q" transform="matrix(1,0,0,1,124.99999999999994,1205.0000000000007) translate(41.96180555555556 38.40277777777778)"/><use xlink:href="#p" transform="matrix(1,0,0,1,124.99999999999994,1205.0000000000007) translate(37.67035590277778 65.29079861111111)"/><path d="M880 1206a6 6 0 0 1 6-6h222.27a6 6 0 0 1 6 6v88a6 6 0 0 1-6 6H886a6 6 0 0 1-6-6z" stroke="#4e2410" stroke-opacity=".84" stroke-width="2" fill-opacity="0"/><use xlink:href="#r" transform="matrix(1,0,0,1,885,1205.000000000001) translate(35.02604166666666 27.21527777777778)"/><use xlink:href="#s" transform="matrix(1,0,0,1,885,1205.000000000001) translate(135.49262152777777 27.21527777777778)"/><use xlink:href="#t" transform="matrix(1,0,0,1,885,1205.000000000001) translate(29.29144965277777 54.103298611111114)"/><use xlink:href="#u" transform="matrix(1,0,0,1,885,1205.000000000001) translate(146.13172743055554 54.103298611111114)"/><use xlink:href="#v" transform="matrix(1,0,0,1,885,1205.000000000001) translate(7.058376736111114 80.99131944444446)"/><use xlink:href="#w" transform="matrix(1,0,0,1,885,1205.000000000001) translate(103.28233506944444 80.99131944444446)"/><path d="M1150 1206a6 6 0 0 1 6-6h188a6 6 0 0 1 6 6v88a6 6 0 0 1-6 6h-188a6 6 0 0 1-6-6z" stroke="#4e2410" stroke-opacity=".84" stroke-width="2" fill-opacity="0"/><use xlink:href="#x" transform="matrix(1,0,0,1,1155,1205.000000000001) translate(9.301215277777771 52.46527777777778)"/><use xlink:href="#w" transform="matrix(1,0,0,1,1155,1205.000000000001) translate(66.03949652777777 52.46527777777778)"/><path d="M-247.13 1006a6 6 0 0 1 6-6h188a6 6 0 0 1 6 6v105.55a6 6 0 0 1-6 6h-188a6 6 0 0 1-6-6z" stroke="#4e2410" stroke-opacity=".84" stroke-width="2" fill-opacity="0"/><use xlink:href="#y" transform="matrix(1,0,0,1,-242.1333333333605,1004.9999999999999) translate(26.971571180555557 48.52777777777778)"/><use xlink:href="#w" transform="matrix(1,0,0,1,-242.1333333333605,1004.9999999999999) translate(37.67035590277778 75.41579861111111)"/><path d="M710 1006a6 6 0 0 1 6-6h188a6 6 0 0 1 6 6v105.55a6 6 0 0 1-6 6H716a6 6 0 0 1-6-6z" stroke="#4e2410" stroke-opacity=".84" stroke-width="2" fill-opacity="0"/><use xlink:href="#z" transform="matrix(1,0,0,1,714.9999999999999,1004.9999999999999) translate(12.252604166666671 62.02777777777778)"/><use xlink:href="#w" transform="matrix(1,0,0,1,714.9999999999999,1004.9999999999999) translate(63.08810763888889 62.02777777777778)"/><path d="M950 1006a6 6 0 0 1 6-6h188a6 6 0 0 1 6 6v105.55a6 6 0 0 1-6 6H956a6 6 0 0 1-6-6z" stroke="#4e2410" stroke-opacity=".84" stroke-width="2" fill-opacity="0"/><use xlink:href="#A" transform="matrix(1,0,0,1,955,1004.9999999999999) translate(15.741102430555571 48.52777777777778)"/><use xlink:href="#w" transform="matrix(1,0,0,1,955,1004.9999999999999) translate(37.67035590277778 75.41579861111111)"/><path d="M1190 1006a6 6 0 0 1 6-6h188a6 6 0 0 1 6 6v105.55a6 6 0 0 1-6 6h-188a6 6 0 0 1-6-6z" stroke="#4e2410" stroke-opacity=".84" stroke-width="2" fill-opacity="0"/><use xlink:href="#B" transform="matrix(1,0,0,1,1195,1004.9999999999999) translate(18.225911458333343 48.52777777777778)"/><use xlink:href="#w" transform="matrix(1,0,0,1,1195,1004.9999999999999) translate(37.67035590277778 75.41579861111111)"/><path d="M1430 1006a6 6 0 0 1 6-6h188a6 6 0 0 1 6 6v105.55a6 6 0 0 1-6 6h-188a6 6 0 0 1-6-6z" stroke="#4e2410" stroke-opacity=".84" stroke-width="2" fill-opacity="0"/><use xlink:href="#C" transform="matrix(1,0,0,1,1435,1004.9999999999999) translate(11.417100694444443 62.02777777777778)"/><use xlink:href="#w" transform="matrix(1,0,0,1,1435,1004.9999999999999) translate(63.923611111111114 62.02777777777778)"/><path d="M1405.73 1206a6 6 0 0 1 6-6h188a6 6 0 0 1 6 6v88a6 6 0 0 1-6 6h-188a6 6 0 0 1-6-6z" stroke="#4e2410" stroke-opacity=".84" stroke-width="2" fill-opacity="0"/><use xlink:href="#D" transform="matrix(1,0,0,1,1410.7333333333333,1205) translate(24.503038194444443 52.46527777777778)"/><use xlink:href="#w" transform="matrix(1,0,0,1,1410.7333333333333,1205) translate(50.83767361111111 52.46527777777778)"/><path d="M-7.13 1006a6 6 0 0 1 6-6h188a6 6 0 0 1 6 6v105.55a6 6 0 0 1-6 6h-188a6 6 0 0 1-6-6z" stroke="#4e2410" stroke-opacity=".84" stroke-width="2" fill-opacity="0"/><use xlink:href="#E" transform="matrix(1,0,0,1,-2.133333333360497,1004.9999999999999) translate(23.7326388888889 48.52777777777778)"/><use xlink:href="#F" transform="matrix(1,0,0,1,-2.133333333360497,1004.9999999999999) translate(37.67035590277778 75.41579861111111)"/><path d="M232.87 1006a6 6 0 0 1 6-6h188a6 6 0 0 1 6 6v105.55a6 6 0 0 1-6 6h-188a6 6 0 0 1-6-6z" stroke="#4e2410" stroke-opacity=".84" stroke-width="2" fill-opacity="0"/><use xlink:href="#G" transform="matrix(1,0,0,1,237.8666666666395,1004.9999999999999) translate(18.18793402777777 62.02777777777778)"/><use xlink:href="#w" transform="matrix(1,0,0,1,237.8666666666395,1004.9999999999999) translate(57.15277777777777 62.02777777777778)"/><path d="M487.13 1006a6 6 0 0 1 6-6h188a6 6 0 0 1 6 6v105.55a6 6 0 0 1-6 6h-188a6 6 0 0 1-6-6z" stroke="#4e2410" stroke-opacity=".84" stroke-width="2" fill-opacity="0"/><use xlink:href="#H" transform="matrix(1,0,0,1,492.1333333333605,1004.9999999999999) translate(42.981770833333336 48.52777777777778)"/><use xlink:href="#w" transform="matrix(1,0,0,1,492.1333333333605,1004.9999999999999) translate(37.67035590277778 75.41579861111111)"/><path d="M360 1206a6 6 0 0 1 6-6h188a6 6 0 0 1 6 6v88a6 6 0 0 1-6 6H366a6 6 0 0 1-6-6z" stroke="#4e2410" stroke-opacity=".84" stroke-width="2" fill-opacity="0"/><use xlink:href="#I" transform="matrix(1,0,0,1,364.9999999999999,1205) translate(38.267144097222214 38.40277777777778)"/><use xlink:href="#J" transform="matrix(1,0,0,1,364.9999999999999,1205) translate(37.67035590277778 65.29079861111111)"/><path d="M-147.13 998.5V916a6 6 0 0 1 6-6H694a6 6 0 0 0 6-6V676.5" stroke="#4e2410" stroke-opacity=".84" fill="none"/><path d="M-146.66 999h-.95v-.5h.94zM700.48 676.5h-.96v-.5h.96z" stroke="#4e2410" stroke-opacity=".84" stroke-width=".05" fill="#4e2410" fill-opacity=".84"/><path d="M92.87 998.5v-88" stroke="#4e2410" stroke-opacity=".84" fill="none"/><path d="M93.34 999h-.95v-.5h.94z" stroke="#4e2410" stroke-opacity=".84" stroke-width=".05" fill="#4e2410" fill-opacity=".84"/><path d="M92.87 910.5v-.5M332.87 998.5v-88" stroke="#4e2410" stroke-opacity=".84" fill="none"/><path d="M333.34 999h-.95v-.5h.94z" stroke="#4e2410" stroke-opacity=".84" stroke-width=".05" fill="#4e2410" fill-opacity=".84"/><path d="M332.87 910.5v-.5M587.13 998.5v-88" stroke="#4e2410" stroke-opacity=".84" fill="none"/><path d="M587.6 999h-.94v-.5h.95z" stroke="#4e2410" stroke-opacity=".84" stroke-width=".05" fill="#4e2410" fill-opacity=".84"/><path d="M587.13 910.5v-.5M1530 998.5V916a6 6 0 0 0-6-6H706a6 6 0 0 1-6-6V676.5" stroke="#4e2410" stroke-opacity=".84" fill="none"/><path d="M1530.47 999h-.94v-.5h.94zM700.48 676.5h-.96v-.5h.96z" stroke="#4e2410" stroke-opacity=".84" stroke-width=".05" fill="#4e2410" fill-opacity=".84"/><path d="M1290 998.5v-88" stroke="#4e2410" stroke-opacity=".84" fill="none"/><path d="M1290.47 999h-.94v-.5h.94z" stroke="#4e2410" stroke-opacity=".84" stroke-width=".05" fill="#4e2410" fill-opacity=".84"/><path d="M1290 910.5v-.5M1050 998.5v-88" stroke="#4e2410" stroke-opacity=".84" fill="none"/><path d="M1050.47 999h-.94v-.5h.94z" stroke="#4e2410" stroke-opacity=".84" stroke-width=".05" fill="#4e2410" fill-opacity=".84"/><path d="M1050 910.5v-.5M810 998.5v-88" stroke="#4e2410" stroke-opacity=".84" fill="none"/><path d="M810.48 999h-.96v-.5h.96z" stroke="#4e2410" stroke-opacity=".84" stroke-width=".05" fill="#4e2410" fill-opacity=".84"/><path d="M810 910.5v-.5M421.5 787.5h278" stroke="#4e2410" stroke-opacity=".84" fill="none"/><path d="M421.5 787.98h-.5V787h.5z" stroke="#4e2410" stroke-opacity=".84" stroke-width=".05" fill="#4e2410" fill-opacity=".84"/><path d="M699.5 787.5h.5M988.5 787.5h-288" stroke="#4e2410" stroke-opacity=".84" fill="none"/><path d="M989 787.98h-.5V787h.5z" stroke="#4e2410" stroke-opacity=".84" stroke-width=".05" fill="#4e2410" fill-opacity=".84"/><path d="M-20 1198.5V1146a6 6 0 0 1 6-6h708a6 6 0 0 0 6-6V908.55" stroke="#4e2410" stroke-opacity=".84" fill="none"/><path d="M-19.52 1199h-.96v-.5h.96z" stroke="#4e2410" stroke-opacity=".84" stroke-width=".05" fill="#4e2410" fill-opacity=".84"/><path d="M700 908.57v-.52M220 1198.5v-58" stroke="#4e2410" stroke-opacity=".84" fill="none"/><path d="M220.47 1199h-.94v-.5h.94z" stroke="#4e2410" stroke-opacity=".84" stroke-width=".05" fill="#4e2410" fill-opacity=".84"/><path d="M220 1140.5v-.5M460 1198.5v-58" stroke="#4e2410" stroke-opacity=".84" fill="none"/><path d="M460.48 1199h-.96v-.5h.96z" stroke="#4e2410" stroke-opacity=".84" stroke-width=".05" fill="#4e2410" fill-opacity=".84"/><path d="M460 1140.5v-.5M1505.73 1198.5V1146a6 6 0 0 0-6-6H706a6 6 0 0 1-6-6V910.5" stroke="#4e2410" stroke-opacity=".84" fill="none"/><path d="M1506.2 1199h-.94v-.5h.95z" stroke="#4e2410" stroke-opacity=".84" stroke-width=".05" fill="#4e2410" fill-opacity=".84"/><path d="M700 910.5v-.5M1250 1198.5v-58" stroke="#4e2410" stroke-opacity=".84" fill="none"/><path d="M1250.47 1199h-.94v-.5h.94z" stroke="#4e2410" stroke-opacity=".84" stroke-width=".05" fill="#4e2410" fill-opacity=".84"/><path d="M1250 1140.5v-.5M997.13 1198.5v-58" stroke="#4e2410" stroke-opacity=".84" fill="none"/><path d="M997.6 1199h-.94v-.5h.95z" stroke="#4e2410" stroke-opacity=".84" stroke-width=".05" fill="#4e2410" fill-opacity=".84"/><path d="M997.13 1140.5v-.5" stroke="#4e2410" stroke-opacity=".84" fill="none"/><defs><path d="M601 0v-560L49-1490h357l252 464c38 68 67 130 97 208 96-243 225-446 337-672h356L905-560V0H601" id="K"/><path d="M49 0l509-1490h400L1480 0h-339l-115-346H497L386 0H49zm524-585h374c-75-213-124-402-192-666-66 268-110 453-182 666" id="L"/><path d="M135 0v-1490h980v253H440v416h609v249H440V0H135" id="M"/><path d="M135 0v-1490h997v253H440v360h640v249H440v375h694V0H135" id="N"/><path d="M75-1237v-253h1217v253H837V0H531v-1237H75" id="O"/><g id="a"><use transform="matrix(0.010850694444444444,0,0,0.010850694444444444,0,0)" xlink:href="#K"/><use transform="matrix(0.010850694444444444,0,0,0.010850694444444444,14.496527777777777,0)" xlink:href="#L"/><use transform="matrix(0.010850694444444444,0,0,0.010850694444444444,31.08723958333333,0)" xlink:href="#M"/><use transform="matrix(0.010850694444444444,0,0,0.010850694444444444,44.12977430555555,0)" xlink:href="#N"/><use transform="matrix(0.010850694444444444,0,0,0.010850694444444444,57.62803819444444,0)" xlink:href="#O"/></g><path d="M681 22C323 22 94-145 85-462h297c10 151 131 226 296 226 163 0 271-77 271-190 0-102-95-149-257-189l-164-41c-252-61-403-188-403-405 0-269 236-449 560-449 330 0 546 183 551 445H941c-11-119-106-188-259-188-156 0-244 72-244 172-3 156 226 185 373 221 250 61 445 186 445 436 0 271-213 446-575 446" id="P"/><path d="M750 21c-371 0-615-218-615-544v-967h305v942c0 174 123 299 310 299s309-125 309-299v-942h306v967c0 326-247 544-615 544" id="Q"/><path d="M135 0v-1490h581c339 0 533 192 533 485 0 204-94 351-264 424L1302 0H964L680-532H440V0H135zm305-779h220c186 0 274-77 274-226 0-150-88-233-275-233H440v459" id="R"/><path d="M440-1490V0H135v-1490h305" id="S"/><path d="M135 0v-1490h340l471 754c59 97 122 210 187 365-32-387-14-721-19-1119h312V0h-341C855-382 627-689 427-1113c32 420 16 695 20 1113H135" id="T"/><path d="M789 20C394 20 94-260 94-744c0-487 300-766 695-766s695 279 695 766c0 485-300 764-695 764zm0-271c231 0 385-174 385-493 0-321-154-495-385-495s-385 175-385 495c0 319 154 493 385 493" id="U"/><g id="b"><use transform="matrix(0.010850694444444444,0,0,0.010850694444444444,0,0)" xlink:href="#P"/><use transform="matrix(0.010850694444444444,0,0,0.010850694444444444,14.55078125,0)" xlink:href="#Q"/><use transform="matrix(0.010850694444444444,0,0,0.010850694444444444,30.81597222222222,0)" xlink:href="#O"/><use transform="matrix(0.010850694444444444,0,0,0.010850694444444444,45.64887152777778,0)" xlink:href="#R"/><use transform="matrix(0.010850694444444444,0,0,0.010850694444444444,60.24305555555555,0)" xlink:href="#S"/><use transform="matrix(0.010850694444444444,0,0,0.010850694444444444,66.48220486111111,0)" xlink:href="#P"/><use transform="matrix(0.010850694444444444,0,0,0.010850694444444444,81.03298611111111,0)" xlink:href="#T"/><use transform="matrix(0.010850694444444444,0,0,0.010850694444444444,97.97092013888889,0)" xlink:href="#U"/></g><path fill="#fff" d="M135 0v-1490h581c339 0 533 210 533 503 0 295-197 500-540 500H440V0H135zm305-733h220c186 0 274-104 274-254s-88-251-275-251H440v505" id="V"/><path fill="#fff" d="M135 0v-1490h581c339 0 533 192 533 485 0 204-94 351-264 424L1302 0H964L680-532H440V0H135zm305-779h220c186 0 274-77 274-226 0-150-88-233-275-233H440v459" id="W"/><path fill="#fff" d="M135 0v-1490h997v253H440v360h640v249H440v375h694V0H135" id="X"/><path fill="#fff" d="M681 22C323 22 94-145 85-462h297c10 151 131 226 296 226 163 0 271-77 271-190 0-102-95-149-257-189l-164-41c-252-61-403-188-403-405 0-269 236-449 560-449 330 0 546 183 551 445H941c-11-119-106-188-259-188-156 0-244 72-244 172-3 156 226 185 373 221 250 61 445 186 445 436 0 271-213 446-575 446" id="Y"/><path fill="#fff" d="M440-1490V0H135v-1490h305" id="Z"/><path fill="#fff" d="M659 0H135v-1490h529c448 0 721 280 721 744 0 466-273 746-726 746zM440-263h204c287 0 437-148 437-483 0-333-150-481-435-481H440v964" id="aa"/><path fill="#fff" d="M135 0v-1490h340l471 754c59 97 122 210 187 365-32-387-14-721-19-1119h312V0h-341C855-382 627-689 427-1113c32 420 16 695 20 1113H135" id="ab"/><path fill="#fff" d="M75-1237v-253h1217v253H837V0H531v-1237H75" id="ac"/><g id="c"><use transform="matrix(0.010850694444444444,0,0,0.010850694444444444,0,0)" xlink:href="#V"/><use transform="matrix(0.010850694444444444,0,0,0.010850694444444444,14.398871527777777,0)" xlink:href="#W"/><use transform="matrix(0.010850694444444444,0,0,0.010850694444444444,28.993055555555554,0)" xlink:href="#X"/><use transform="matrix(0.010850694444444444,0,0,0.010850694444444444,42.49131944444444,0)" xlink:href="#Y"/><use transform="matrix(0.010850694444444444,0,0,0.010850694444444444,57.04210069444444,0)" xlink:href="#Z"/><use transform="matrix(0.010850694444444444,0,0,0.010850694444444444,63.28125,0)" xlink:href="#aa"/><use transform="matrix(0.010850694444444444,0,0,0.010850694444444444,79.32942708333333,0)" xlink:href="#X"/><use transform="matrix(0.010850694444444444,0,0,0.010850694444444444,92.82769097222221,0)" xlink:href="#ab"/><use transform="matrix(0.010850694444444444,0,0,0.010850694444444444,109.765625,0)" xlink:href="#ac"/></g><path fill="#fff" d="M786 20C389 20 94-260 94-744c0-487 299-766 692-766 339 0 597 194 641 529h-309c-28-162-156-258-326-258-233 0-388 179-388 495 0 323 157 493 387 493 170 0 298-97 328-259h309c-34 277-266 530-642 530" id="ad"/><path fill="#fff" d="M789 20C394 20 94-260 94-744c0-487 300-766 695-766s695 279 695 766c0 485-300 764-695 764zm0-271c231 0 385-174 385-493 0-321-154-495-385-495s-385 175-385 495c0 319 154 493 385 493" id="ae"/><g id="d"><use transform="matrix(0.010850694444444444,0,0,0.010850694444444444,0,0)" xlink:href="#aa"/><use transform="matrix(0.010850694444444444,0,0,0.010850694444444444,16.048177083333332,0)" xlink:href="#Z"/><use transform="matrix(0.010850694444444444,0,0,0.010850694444444444,22.28732638888889,0)" xlink:href="#W"/><use transform="matrix(0.010850694444444444,0,0,0.010850694444444444,36.881510416666664,0)" xlink:href="#X"/><use transform="matrix(0.010850694444444444,0,0,0.010850694444444444,50.37977430555556,0)" xlink:href="#ad"/><use transform="matrix(0.010850694444444444,0,0,0.010850694444444444,66.81857638888889,0)" xlink:href="#ac"/><use transform="matrix(0.010850694444444444,0,0,0.010850694444444444,80.94618055555556,0)" xlink:href="#ae"/><use transform="matrix(0.010850694444444444,0,0,0.010850694444444444,98.06857638888889,0)" xlink:href="#W"/></g><path d="M659 0H135v-1490h529c448 0 721 280 721 744 0 466-273 746-726 746zM440-263h204c287 0 437-148 437-483 0-333-150-481-435-481H440v964" id="af"/><g id="e"><use transform="matrix(0.010850694444444444,0,0,0.010850694444444444,0,0)" xlink:href="#af"/><use transform="matrix(0.010850694444444444,0,0,0.010850694444444444,16.048177083333332,0)" xlink:href="#N"/><use transform="matrix(0.010850694444444444,0,0,0.010850694444444444,29.54644097222222,0)" xlink:href="#af"/><use transform="matrix(0.010850694444444444,0,0,0.010850694444444444,44.63975694444444,0)" xlink:href="#K"/></g><g id="f"><use transform="matrix(0.010850694444444444,0,0,0.010850694444444444,0,0)" xlink:href="#P"/><use transform="matrix(0.010850694444444444,0,0,0.010850694444444444,14.55078125,0)" xlink:href="#Q"/><use transform="matrix(0.010850694444444444,0,0,0.010850694444444444,30.81597222222222,0)" xlink:href="#P"/><use transform="matrix(0.010850694444444444,0,0,0.010850694444444444,45.03038194444444,0)" xlink:href="#L"/><use transform="matrix(0.010850694444444444,0,0,0.010850694444444444,61.62109375,0)" xlink:href="#T"/><use transform="matrix(0.010850694444444444,0,0,0.010850694444444444,78.55902777777777,0)" xlink:href="#O"/><use transform="matrix(0.010850694444444444,0,0,0.010850694444444444,92.68663194444444,0)" xlink:href="#U"/></g><g id="g"><use transform="matrix(0.010850694444444444,0,0,0.010850694444444444,0,0)" xlink:href="#aa"/><use transform="matrix(0.010850694444444444,0,0,0.010850694444444444,16.048177083333332,0)" xlink:href="#Z"/><use transform="matrix(0.010850694444444444,0,0,0.010850694444444444,22.28732638888889,0)" xlink:href="#W"/><use transform="matrix(0.010850694444444444,0,0,0.010850694444444444,36.881510416666664,0)" xlink:href="#X"/><use transform="matrix(0.010850694444444444,0,0,0.010850694444444444,50.37977430555556,0)" xlink:href="#ad"/><use transform="matrix(0.010850694444444444,0,0,0.010850694444444444,66.81857638888889,0)" xlink:href="#ac"/><use transform="matrix(0.010850694444444444,0,0,0.010850694444444444,80.94618055555556,0)" xlink:href="#ae"/><use transform="matrix(0.010850694444444444,0,0,0.010850694444444444,98.06857638888889,0)" xlink:href="#W"/></g><g id="h"><use transform="matrix(0.010850694444444444,0,0,0.010850694444444444,0,0)" xlink:href="#P"/><use transform="matrix(0.010850694444444444,0,0,0.010850694444444444,14.55078125,0)" xlink:href="#Q"/><use transform="matrix(0.010850694444444444,0,0,0.010850694444444444,30.81597222222222,0)" xlink:href="#T"/><use transform="matrix(0.010850694444444444,0,0,0.010850694444444444,47.75390625,0)" xlink:href="#L"/><use transform="matrix(0.010850694444444444,0,0,0.010850694444444444,64.34461805555556,0)" xlink:href="#R"/><use transform="matrix(0.010850694444444444,0,0,0.010850694444444444,78.93880208333333,0)" xlink:href="#af"/><use transform="matrix(0.010850694444444444,0,0,0.010850694444444444,94.98697916666666,0)" xlink:href="#S"/></g><path fill="#fff" d="M49 0l509-1490h400L1480 0h-339l-115-346H497L386 0H49zm524-585h374c-75-213-124-402-192-666-66 268-110 453-182 666" id="ag"/><g id="i"><use transform="matrix(0.010850694444444444,0,0,0.010850694444444444,0,0)" xlink:href="#ag"/><use transform="matrix(0.010850694444444444,0,0,0.010850694444444444,16.254340277777775,0)" xlink:href="#Y"/><use transform="matrix(0.010850694444444444,0,0,0.010850694444444444,30.805121527777775,0)" xlink:href="#Y"/><use transform="matrix(0.010850694444444444,0,0,0.010850694444444444,45.35590277777778,0)" xlink:href="#Z"/><use transform="matrix(0.010850694444444444,0,0,0.010850694444444444,51.59505208333333,0)" xlink:href="#Y"/><use transform="matrix(0.010850694444444444,0,0,0.010850694444444444,66.14583333333333,0)" xlink:href="#ac"/><use transform="matrix(0.010850694444444444,0,0,0.010850694444444444,79.00390625,0)" xlink:href="#ag"/><use transform="matrix(0.010850694444444444,0,0,0.010850694444444444,95.59461805555556,0)" xlink:href="#ab"/><use transform="matrix(0.010850694444444444,0,0,0.010850694444444444,112.53255208333334,0)" xlink:href="#ac"/></g><g id="j"><use transform="matrix(0.010850694444444444,0,0,0.010850694444444444,0,0)" xlink:href="#aa"/><use transform="matrix(0.010850694444444444,0,0,0.010850694444444444,16.048177083333332,0)" xlink:href="#Z"/><use transform="matrix(0.010850694444444444,0,0,0.010850694444444444,22.28732638888889,0)" xlink:href="#W"/><use transform="matrix(0.010850694444444444,0,0,0.010850694444444444,36.881510416666664,0)" xlink:href="#X"/><use transform="matrix(0.010850694444444444,0,0,0.010850694444444444,50.37977430555556,0)" xlink:href="#ad"/><use transform="matrix(0.010850694444444444,0,0,0.010850694444444444,66.81857638888889,0)" xlink:href="#ac"/><use transform="matrix(0.010850694444444444,0,0,0.010850694444444444,80.94618055555556,0)" xlink:href="#ae"/><use transform="matrix(0.010850694444444444,0,0,0.010850694444444444,98.06857638888889,0)" xlink:href="#W"/></g><path fill="#fff" d="M135 0v-1490h980v253H440v416h609v249H440V0H135" id="ah"/><g id="k"><use transform="matrix(0.010850694444444444,0,0,0.010850694444444444,0,0)" xlink:href="#ae"/><use transform="matrix(0.010850694444444444,0,0,0.010850694444444444,17.122395833333332,0)" xlink:href="#ah"/></g><path fill="#fff" d="M135 0v-1490h305v1237h643V0H135" id="ai"/><g id="l"><use transform="matrix(0.010850694444444444,0,0,0.010850694444444444,0,0)" xlink:href="#ah"/><use transform="matrix(0.010850694444444444,0,0,0.010850694444444444,13.042534722222221,0)" xlink:href="#Z"/><use transform="matrix(0.010850694444444444,0,0,0.010850694444444444,19.28168402777778,0)" xlink:href="#X"/><use transform="matrix(0.010850694444444444,0,0,0.010850694444444444,32.77994791666667,0)" xlink:href="#ai"/><use transform="matrix(0.010850694444444444,0,0,0.010850694444444444,45.34505208333333,0)" xlink:href="#aa"/></g><path d="M449 0L49-1490h333c89 395 194 758 253 1185 65-426 176-790 269-1185h317c93 394 201 758 268 1181 60-425 164-788 253-1181h334L1675 0h-348c-90-376-204-711-266-1118C1004-714 886-373 798 0H449" id="aj"/><path d="M135 0v-1490h305v1237h643V0H135" id="ak"/><g id="m"><use transform="matrix(0.010850694444444444,0,0,0.010850694444444444,0,0)" xlink:href="#P"/><use transform="matrix(0.010850694444444444,0,0,0.010850694444444444,14.55078125,0)" xlink:href="#Q"/><use transform="matrix(0.010850694444444444,0,0,0.010850694444444444,30.81597222222222,0)" xlink:href="#aj"/><use transform="matrix(0.010850694444444444,0,0,0.010850694444444444,52.27864583333333,0)" xlink:href="#L"/><use transform="matrix(0.010850694444444444,0,0,0.010850694444444444,68.86935763888889,0)" xlink:href="#R"/><use transform="matrix(0.010850694444444444,0,0,0.010850694444444444,83.46354166666666,0)" xlink:href="#ak"/><use transform="matrix(0.010850694444444444,0,0,0.010850694444444444,96.02864583333333,0)" xlink:href="#S"/><use transform="matrix(0.010850694444444444,0,0,0.010850694444444444,102.26779513888889,0)" xlink:href="#T"/></g><path fill="#fff" d="M135 0v-1490h468l242 684c30 94 76 293 111 455 34-161 80-360 110-455l238-684h470V0h-307c0-447-3-765 11-1227-122 503-246 788-395 1227H826C676-435 552-717 427-1215c15 453 11 775 11 1215H135" id="al"/><g id="n"><use transform="matrix(0.010850694444444444,0,0,0.010850694444444444,0,0)" xlink:href="#ag"/><use transform="matrix(0.010850694444444444,0,0,0.010850694444444444,16.590711805555554,0)" xlink:href="#aa"/><use transform="matrix(0.010850694444444444,0,0,0.010850694444444444,32.638888888888886,0)" xlink:href="#al"/><use transform="matrix(0.010850694444444444,0,0,0.010850694444444444,53.342013888888886,0)" xlink:href="#Z"/><use transform="matrix(0.010850694444444444,0,0,0.010850694444444444,59.58116319444444,0)" xlink:href="#ab"/><use transform="matrix(0.010850694444444444,0,0,0.010850694444444444,76.51909722222223,0)" xlink:href="#Z"/><use transform="matrix(0.010850694444444444,0,0,0.010850694444444444,82.75824652777779,0)" xlink:href="#Y"/><use transform="matrix(0.010850694444444444,0,0,0.010850694444444444,97.3090277777778,0)" xlink:href="#ac"/><use transform="matrix(0.010850694444444444,0,0,0.010850694444444444,112.14192708333334,0)" xlink:href="#W"/><use transform="matrix(0.010850694444444444,0,0,0.010850694444444444,126.7361111111111,0)" xlink:href="#ag"/><use transform="matrix(0.010850694444444444,0,0,0.010850694444444444,141.35199652777777,0)" xlink:href="#ac"/><use transform="matrix(0.010850694444444444,0,0,0.010850694444444444,156.18489583333331,0)" xlink:href="#Z"/><use transform="matrix(0.010850694444444444,0,0,0.010850694444444444,162.42404513888886,0)" xlink:href="#ae"/><use transform="matrix(0.010850694444444444,0,0,0.010850694444444444,179.54644097222223,0)" xlink:href="#ab"/></g><path d="M135 0v-1490h581c339 0 533 210 533 503 0 295-197 500-540 500H440V0H135zm305-733h220c186 0 274-104 274-254s-88-251-275-251H440v505" id="am"/><g id="o"><use transform="matrix(0.010850694444444444,0,0,0.010850694444444444,0,0)" xlink:href="#am"/><use transform="matrix(0.010850694444444444,0,0,0.010850694444444444,14.398871527777777,0)" xlink:href="#ak"/><use transform="matrix(0.010850694444444444,0,0,0.010850694444444444,26.963975694444443,0)" xlink:href="#L"/><use transform="matrix(0.010850694444444444,0,0,0.010850694444444444,43.5546875,0)" xlink:href="#T"/><use transform="matrix(0.010850694444444444,0,0,0.010850694444444444,60.49262152777778,0)" xlink:href="#O"/></g><path d="M135 0v-1490h468l242 684c30 94 76 293 111 455 34-161 80-360 110-455l238-684h470V0h-307c0-447-3-765 11-1227-122 503-246 788-395 1227H826C676-435 552-717 427-1215c15 453 11 775 11 1215H135" id="an"/><path d="M795 20C377 20 94-272 94-743c0-483 302-767 694-767 335 0 593 206 635 500h-310c-42-142-154-229-320-229-230 0-389 177-389 493s154 495 393 495c212 0 340-120 345-311H818v-232h620v186c0 391-269 628-643 628" id="ao"/><g id="p"><use transform="matrix(0.010850694444444444,0,0,0.010850694444444444,0,0)" xlink:href="#an"/><use transform="matrix(0.010850694444444444,0,0,0.010850694444444444,20.703125,0)" xlink:href="#L"/><use transform="matrix(0.010850694444444444,0,0,0.010850694444444444,37.29383680555556,0)" xlink:href="#T"/><use transform="matrix(0.010850694444444444,0,0,0.010850694444444444,54.23177083333333,0)" xlink:href="#L"/><use transform="matrix(0.010850694444444444,0,0,0.010850694444444444,69.88932291666667,0)" xlink:href="#ao"/><use transform="matrix(0.010850694444444444,0,0,0.010850694444444444,86.56684027777779,0)" xlink:href="#N"/><use transform="matrix(0.010850694444444444,0,0,0.010850694444444444,100.06510416666666,0)" xlink:href="#R"/></g><path d="M786 20C389 20 94-260 94-744c0-487 299-766 692-766 339 0 597 194 641 529h-309c-28-162-156-258-326-258-233 0-388 179-388 495 0 323 157 493 387 493 170 0 298-97 328-259h309c-34 277-266 530-642 530" id="ap"/><path d="M135 0v-1490h305v602h649v-602h306V0h-306v-635H440V0H135" id="aq"/><g id="q"><use transform="matrix(0.010850694444444444,0,0,0.010850694444444444,0,0)" xlink:href="#an"/><use transform="matrix(0.010850694444444444,0,0,0.010850694444444444,20.703125,0)" xlink:href="#L"/><use transform="matrix(0.010850694444444444,0,0,0.010850694444444444,36.36067708333333,0)" xlink:href="#ap"/><use transform="matrix(0.010850694444444444,0,0,0.010850694444444444,52.79947916666666,0)" xlink:href="#aq"/><use transform="matrix(0.010850694444444444,0,0,0.010850694444444444,69.40104166666666,0)" xlink:href="#S"/><use transform="matrix(0.010850694444444444,0,0,0.010850694444444444,75.64019097222221,0)" xlink:href="#T"/><use transform="matrix(0.010850694444444444,0,0,0.010850694444444444,92.578125,0)" xlink:href="#N"/></g><g id="r"><use transform="matrix(0.010850694444444444,0,0,0.010850694444444444,0,0)" xlink:href="#ap"/><use transform="matrix(0.010850694444444444,0,0,0.010850694444444444,15.831163194444445,0)" xlink:href="#L"/><use transform="matrix(0.010850694444444444,0,0,0.010850694444444444,32.421875,0)" xlink:href="#R"/><use transform="matrix(0.010850694444444444,0,0,0.010850694444444444,47.01605902777778,0)" xlink:href="#O"/><use transform="matrix(0.010850694444444444,0,0,0.010850694444444444,61.14366319444445,0)" xlink:href="#U"/><use transform="matrix(0.010850694444444444,0,0,0.010850694444444444,78.26605902777779,0)" xlink:href="#T"/></g><path d="M135 0v-1490h591c327 0 492 160 492 383 0 177-115 286-268 320v15c168 8 326 140 326 361 0 236-176 411-512 411H135zm305-251h264c179 0 258-76 258-189 0-125-97-215-250-215H440v404zm0-613h241c131 0 228-74 228-194 0-109-79-183-222-183H440v377" id="ar"/><path d="M51 0l535-762-487-728h354c99 152 240 357 306 516 68-159 211-365 312-516h346L934-771 1461 0h-362C993-164 838-379 756-546 674-378 513-163 404 0H51" id="as"/><path d="M119 395l88-620h300L323 395H119" id="at"/><g id="s"><use transform="matrix(0.010850694444444444,0,0,0.010850694444444444,0,0)" xlink:href="#ar"/><use transform="matrix(0.010850694444444444,0,0,0.010850694444444444,14.702690972222221,0)" xlink:href="#U"/><use transform="matrix(0.010850694444444444,0,0,0.010850694444444444,30.653211805555554,0)" xlink:href="#as"/><use transform="matrix(0.010850694444444444,0,0,0.010850694444444444,47.05946180555556,0)" xlink:href="#at"/></g><g id="t"><use transform="matrix(0.010850694444444444,0,0,0.010850694444444444,0,0)" xlink:href="#ap"/><use transform="matrix(0.010850694444444444,0,0,0.010850694444444444,16.438802083333332,0)" xlink:href="#Q"/><use transform="matrix(0.010850694444444444,0,0,0.010850694444444444,32.70399305555556,0)" xlink:href="#P"/><use transform="matrix(0.010850694444444444,0,0,0.010850694444444444,47.25477430555556,0)" xlink:href="#aq"/><use transform="matrix(0.010850694444444444,0,0,0.010850694444444444,63.85633680555555,0)" xlink:href="#S"/><use transform="matrix(0.010850694444444444,0,0,0.010850694444444444,70.09548611111111,0)" xlink:href="#U"/><use transform="matrix(0.010850694444444444,0,0,0.010850694444444444,87.21788194444444,0)" xlink:href="#T"/><use transform="matrix(0.010850694444444444,0,0,0.010850694444444444,104.15581597222224,0)" xlink:href="#at"/></g><g id="u"><use transform="matrix(0.010850694444444444,0,0,0.010850694444444444,0,0)" xlink:href="#L"/><use transform="matrix(0.010850694444444444,0,0,0.010850694444444444,16.590711805555554,0)" xlink:href="#T"/><use transform="matrix(0.010850694444444444,0,0,0.010850694444444444,33.52864583333333,0)" xlink:href="#af"/></g><g id="v"><use transform="matrix(0.010850694444444444,0,0,0.010850694444444444,0,0)" xlink:href="#P"/><use transform="matrix(0.010850694444444444,0,0,0.010850694444444444,14.55078125,0)" xlink:href="#N"/><use transform="matrix(0.010850694444444444,0,0,0.010850694444444444,28.04904513888889,0)" xlink:href="#aj"/><use transform="matrix(0.010850694444444444,0,0,0.010850694444444444,51.10677083333333,0)" xlink:href="#S"/><use transform="matrix(0.010850694444444444,0,0,0.010850694444444444,57.345920138888886,0)" xlink:href="#T"/><use transform="matrix(0.010850694444444444,0,0,0.010850694444444444,74.28385416666666,0)" xlink:href="#ao"/></g><g id="w"><use transform="matrix(0.010850694444444444,0,0,0.010850694444444444,0,0)" xlink:href="#an"/><use transform="matrix(0.010850694444444444,0,0,0.010850694444444444,20.703125,0)" xlink:href="#L"/><use transform="matrix(0.010850694444444444,0,0,0.010850694444444444,37.29383680555556,0)" xlink:href="#T"/><use transform="matrix(0.010850694444444444,0,0,0.010850694444444444,54.23177083333333,0)" xlink:href="#L"/><use transform="matrix(0.010850694444444444,0,0,0.010850694444444444,69.88932291666667,0)" xlink:href="#ao"/><use transform="matrix(0.010850694444444444,0,0,0.010850694444444444,86.56684027777779,0)" xlink:href="#N"/><use transform="matrix(0.010850694444444444,0,0,0.010850694444444444,100.06510416666666,0)" xlink:href="#R"/></g><g id="x"><use transform="matrix(0.010850694444444444,0,0,0.010850694444444444,0,0)" xlink:href="#am"/><use transform="matrix(0.010850694444444444,0,0,0.010850694444444444,14.398871527777777,0)" xlink:href="#am"/><use transform="matrix(0.010850694444444444,0,0,0.010850694444444444,28.797743055555554,0)" xlink:href="#S"/><use transform="matrix(0.010850694444444444,0,0,0.010850694444444444,35.03689236111111,0)" xlink:href="#ap"/></g><path d="M135 0v-1490h305c1 251 0 501-5 746 157-254 405-512 598-746h373L849-845 1422 0h-361L638-644 440-426V0H135" id="au"/><g id="y"><use transform="matrix(0.010850694444444444,0,0,0.010850694444444444,0,0)" xlink:href="#an"/><use transform="matrix(0.010850694444444444,0,0,0.010850694444444444,20.703125,0)" xlink:href="#L"/><use transform="matrix(0.010850694444444444,0,0,0.010850694444444444,37.29383680555556,0)" xlink:href="#R"/><use transform="matrix(0.010850694444444444,0,0,0.010850694444444444,51.88802083333333,0)" xlink:href="#au"/><use transform="matrix(0.010850694444444444,0,0,0.010850694444444444,67.87109375,0)" xlink:href="#N"/><use transform="matrix(0.010850694444444444,0,0,0.010850694444444444,81.36935763888889,0)" xlink:href="#O"/><use transform="matrix(0.010850694444444444,0,0,0.010850694444444444,96.20225694444444,0)" xlink:href="#S"/><use transform="matrix(0.010850694444444444,0,0,0.010850694444444444,102.44140625,0)" xlink:href="#T"/><use transform="matrix(0.010850694444444444,0,0,0.010850694444444444,119.37934027777777,0)" xlink:href="#ao"/></g><path d="M579 22C270 22 81-162 81-393c0-177 110-281 274-393-80-101-143-210-143-345 0-213 160-377 403-377 238 0 385 158 385 351 0 138-76 251-198 340l-89 64 251 289c39-73 63-161 63-258h251c0 203-53 358-134 465L1367 0h-316l-91-101C852-17 708 22 579 22zm-69-628c-83 57-139 119-136 201 0 113 86 185 214 185 72 0 145-22 210-63zm56-319c74-50 193-114 190-218 0-69-50-123-139-123s-146 55-146 138c0 67 36 129 95 203" id="av"/><g id="z"><use transform="matrix(0.010850694444444444,0,0,0.010850694444444444,0,0)" xlink:href="#R"/><use transform="matrix(0.010850694444444444,0,0,0.010850694444444444,14.594184027777777,0)" xlink:href="#av"/><use transform="matrix(0.010850694444444444,0,0,0.010850694444444444,29.524739583333332,0)" xlink:href="#af"/></g><g id="A"><use transform="matrix(0.010850694444444444,0,0,0.010850694444444444,0,0)" xlink:href="#U"/><use transform="matrix(0.010850694444444444,0,0,0.010850694444444444,17.122395833333332,0)" xlink:href="#am"/><use transform="matrix(0.010850694444444444,0,0,0.010850694444444444,31.521267361111104,0)" xlink:href="#N"/><use transform="matrix(0.010850694444444444,0,0,0.010850694444444444,45.01953125,0)" xlink:href="#R"/><use transform="matrix(0.010850694444444444,0,0,0.010850694444444444,59.61371527777778,0)" xlink:href="#L"/><use transform="matrix(0.010850694444444444,0,0,0.010850694444444444,74.22960069444444,0)" xlink:href="#O"/><use transform="matrix(0.010850694444444444,0,0,0.010850694444444444,89.0625,0)" xlink:href="#S"/><use transform="matrix(0.010850694444444444,0,0,0.010850694444444444,95.30164930555556,0)" xlink:href="#U"/><use transform="matrix(0.010850694444444444,0,0,0.010850694444444444,112.42404513888889,0)" xlink:href="#T"/><use transform="matrix(0.010850694444444444,0,0,0.010850694444444444,129.36197916666666,0)" xlink:href="#L"/><use transform="matrix(0.010850694444444444,0,0,0.010850694444444444,145.9526909722222,0)" xlink:href="#ak"/></g><g id="B"><use transform="matrix(0.010850694444444444,0,0,0.010850694444444444,0,0)" xlink:href="#L"/><use transform="matrix(0.010850694444444444,0,0,0.010850694444444444,15.657552083333332,0)" xlink:href="#ap"/><use transform="matrix(0.010850694444444444,0,0,0.010850694444444444,32.096354166666664,0)" xlink:href="#ap"/><use transform="matrix(0.010850694444444444,0,0,0.010850694444444444,48.53515625,0)" xlink:href="#U"/><use transform="matrix(0.010850694444444444,0,0,0.010850694444444444,65.65755208333333,0)" xlink:href="#Q"/><use transform="matrix(0.010850694444444444,0,0,0.010850694444444444,81.92274305555554,0)" xlink:href="#T"/><use transform="matrix(0.010850694444444444,0,0,0.010850694444444444,98.86067708333331,0)" xlink:href="#O"/><use transform="matrix(0.010850694444444444,0,0,0.010850694444444444,113.69357638888887,0)" xlink:href="#S"/><use transform="matrix(0.010850694444444444,0,0,0.010850694444444444,119.93272569444441,0)" xlink:href="#T"/><use transform="matrix(0.010850694444444444,0,0,0.010850694444444444,136.8706597222222,0)" xlink:href="#ao"/></g><g id="C"><use transform="matrix(0.010850694444444444,0,0,0.010850694444444444,0,0)" xlink:href="#aq"/><use transform="matrix(0.010850694444444444,0,0,0.010850694444444444,16.6015625,0)" xlink:href="#R"/><use transform="matrix(0.010850694444444444,0,0,0.010850694444444444,31.195746527777775,0)" xlink:href="#af"/></g><g id="D"><use transform="matrix(0.010850694444444444,0,0,0.010850694444444444,0,0)" xlink:href="#S"/><use transform="matrix(0.010850694444444444,0,0,0.010850694444444444,6.239149305555555,0)" xlink:href="#O"/></g><g id="E"><use transform="matrix(0.010850694444444444,0,0,0.010850694444444444,0,0)" xlink:href="#L"/><use transform="matrix(0.010850694444444444,0,0,0.010850694444444444,16.590711805555554,0)" xlink:href="#ak"/><use transform="matrix(0.010850694444444444,0,0,0.010850694444444444,29.15581597222222,0)" xlink:href="#Q"/><use transform="matrix(0.010850694444444444,0,0,0.010850694444444444,45.42100694444444,0)" xlink:href="#an"/><use transform="matrix(0.010850694444444444,0,0,0.010850694444444444,66.12413194444444,0)" xlink:href="#Q"/><use transform="matrix(0.010850694444444444,0,0,0.010850694444444444,82.38932291666666,0)" xlink:href="#T"/><use transform="matrix(0.010850694444444444,0,0,0.010850694444444444,99.32725694444441,0)" xlink:href="#S"/><use transform="matrix(0.010850694444444444,0,0,0.010850694444444444,105.56640624999997,0)" xlink:href="#Q"/><use transform="matrix(0.010850694444444444,0,0,0.010850694444444444,121.8315972222222,0)" xlink:href="#an"/></g><g id="F"><use transform="matrix(0.010850694444444444,0,0,0.010850694444444444,0,0)" xlink:href="#an"/><use transform="matrix(0.010850694444444444,0,0,0.010850694444444444,20.703125,0)" xlink:href="#L"/><use transform="matrix(0.010850694444444444,0,0,0.010850694444444444,37.29383680555556,0)" xlink:href="#T"/><use transform="matrix(0.010850694444444444,0,0,0.010850694444444444,54.23177083333333,0)" xlink:href="#L"/><use transform="matrix(0.010850694444444444,0,0,0.010850694444444444,69.88932291666667,0)" xlink:href="#ao"/><use transform="matrix(0.010850694444444444,0,0,0.010850694444444444,86.56684027777779,0)" xlink:href="#N"/><use transform="matrix(0.010850694444444444,0,0,0.010850694444444444,100.06510416666666,0)" xlink:href="#R"/></g><path d="M789 20C394 20 94-260 94-744c0-487 300-766 695-766s695 279 695 766c0 264-89 467-233 597l215 271h-285L1058-29C976 3 886 20 789 20zm-94-532h261l108 139c70-83 110-208 110-371 0-321-154-495-385-495s-385 175-385 495c0 356 184 537 481 482" id="aw"/><g id="G"><use transform="matrix(0.010850694444444444,0,0,0.010850694444444444,0,0)" xlink:href="#aw"/><use transform="matrix(0.010850694444444444,0,0,0.010850694444444444,17.26345486111111,0)" xlink:href="#ap"/></g><g id="H"><use transform="matrix(0.010850694444444444,0,0,0.010850694444444444,0,0)" xlink:href="#ak"/><use transform="matrix(0.010850694444444444,0,0,0.010850694444444444,11.93576388888889,0)" xlink:href="#U"/><use transform="matrix(0.010850694444444444,0,0,0.010850694444444444,29.05815972222222,0)" xlink:href="#ao"/><use transform="matrix(0.010850694444444444,0,0,0.010850694444444444,45.73567708333333,0)" xlink:href="#S"/><use transform="matrix(0.010850694444444444,0,0,0.010850694444444444,51.974826388888886,0)" xlink:href="#P"/><use transform="matrix(0.010850694444444444,0,0,0.010850694444444444,66.52560763888889,0)" xlink:href="#O"/><use transform="matrix(0.010850694444444444,0,0,0.010850694444444444,81.35850694444444,0)" xlink:href="#S"/><use transform="matrix(0.010850694444444444,0,0,0.010850694444444444,87.59765625,0)" xlink:href="#ap"/></g><g id="I"><use transform="matrix(0.010850694444444444,0,0,0.010850694444444444,0,0)" xlink:href="#M"/><use transform="matrix(0.010850694444444444,0,0,0.010850694444444444,13.042534722222221,0)" xlink:href="#S"/><use transform="matrix(0.010850694444444444,0,0,0.010850694444444444,19.28168402777778,0)" xlink:href="#T"/><use transform="matrix(0.010850694444444444,0,0,0.010850694444444444,36.21961805555556,0)" xlink:href="#S"/><use transform="matrix(0.010850694444444444,0,0,0.010850694444444444,42.458767361111114,0)" xlink:href="#P"/><use transform="matrix(0.010850694444444444,0,0,0.010850694444444444,57.00954861111112,0)" xlink:href="#aq"/><use transform="matrix(0.010850694444444444,0,0,0.010850694444444444,73.61111111111111,0)" xlink:href="#S"/><use transform="matrix(0.010850694444444444,0,0,0.010850694444444444,79.85026041666667,0)" xlink:href="#T"/><use transform="matrix(0.010850694444444444,0,0,0.010850694444444444,96.78819444444446,0)" xlink:href="#ao"/></g><g id="J"><use transform="matrix(0.010850694444444444,0,0,0.010850694444444444,0,0)" xlink:href="#an"/><use transform="matrix(0.010850694444444444,0,0,0.010850694444444444,20.703125,0)" xlink:href="#L"/><use transform="matrix(0.010850694444444444,0,0,0.010850694444444444,37.29383680555556,0)" xlink:href="#T"/><use transform="matrix(0.010850694444444444,0,0,0.010850694444444444,54.23177083333333,0)" xlink:href="#L"/><use transform="matrix(0.010850694444444444,0,0,0.010850694444444444,69.88932291666667,0)" xlink:href="#ao"/><use transform="matrix(0.010850694444444444,0,0,0.010850694444444444,86.56684027777779,0)" xlink:href="#N"/><use transform="matrix(0.010850694444444444,0,0,0.010850694444444444,100.06510416666666,0)" xlink:href="#R"/></g></defs></g></svg>